<svg xmlns="http://www.w3.org/2000/svg" viewBox="0 0 512 512" width="512" height="512"><rect width="512" height="512" fill="#09090b"/><defs><mask id="ma"><rect x="-142" y="-130" width="784" height="784" fill="#fff"/><circle cx="293.7" cy="56.6" r="40" fill="#000"/><circle cx="379.3" cy="96.5" r="46" fill="#000"/><circle cx="441.8" cy="176.6" r="40" fill="#000"/></mask><clipPath id="ca"><circle cx="250" cy="262" r="206.78"/></clipPath></defs><g mask="url(#ma)"><circle cx="250" cy="262" r="196" fill="#f3ba2f" stroke="#161004" stroke-width="21.56"/><circle cx="250" cy="262" r="156.8" fill="none" stroke="#d89a14" stroke-width="13.72"/><path d="M128.48000000000002,213.0 A133.28,133.28 0 0 1 210.8,136.56" fill="none" stroke="#ffe08a" stroke-width="13.72" stroke-linecap="round"/><g transform="rotate(45 250 262)">
<path d="M238.75,316.0 L238.75,152.5 L250,116.5 L261.25,152.5 L261.25,316.0 Z" fill="#161004"/>
<rect x="202.75" y="316.0" width="94.5" height="21.375" rx="6.75" fill="#161004"/>
<rect x="240.55" y="336.25" width="18.9" height="60.0" fill="#161004"/>
<circle cx="250" cy="406.375" r="15.749999999999998" fill="#161004"/></g><g transform="rotate(-45 250 262)">
<path d="M238.75,316.0 L238.75,152.5 L250,116.5 L261.25,152.5 L261.25,316.0 Z" fill="#161004"/>
<rect x="202.75" y="316.0" width="94.5" height="21.375" rx="6.75" fill="#161004"/>
<rect x="240.55" y="336.25" width="18.9" height="60.0" fill="#161004"/>
<circle cx="250" cy="406.375" r="15.749999999999998" fill="#161004"/></g></g><g clip-path="url(#ca)" mask="url(#ma)"><circle cx="293.7" cy="56.6" r="40" fill="none" stroke="#161004" stroke-width="43.12"/><circle cx="379.3" cy="96.5" r="46" fill="none" stroke="#161004" stroke-width="43.12"/><circle cx="441.8" cy="176.6" r="40" fill="none" stroke="#161004" stroke-width="43.12"/></g><rect x="442.1" y="42.5" width="25.5" height="25.5" fill="#f3ba2f" stroke="#161004" stroke-width="9.7" transform="rotate(18 449.9 50.3)"/><rect x="473.4" y="93.4" width="17.6" height="17.6" fill="#f3ba2f" stroke="#161004" stroke-width="8.6"/></svg>